<svg xmlns="http://www.w3.org/2000/svg" width="24" height="24" viewBox="0 0 32 32">
    <path d="M16.001,1.860 C 15.777,1.878 15.396,2.202 15.194,2.828 14.910,3.706 14.879,4.322 14.879,9.139 l -4.250e-4,4.609 H 13.460 12.041 L 11.998,13.133 c -0.024,-0.338 -0.092,-0.707 -0.150,-0.820 -0.218,-0.421 -0.633,-0.407 -0.811,0.028 -0.049,0.119 -0.110,0.483 -0.136,0.809 l -0.048,0.593 -0.216,0.035 c -0.118,0.019 -1.118,0.112 -2.222,0.206 -3.270,0.280 -2.267,0.212 -4.830,0.428 -1.988,0.174 -2.134,0.220 -2.390,0.744 -0.146,0.301 -0.161,0.429 -0.185,1.703 -0.015,0.758 -0.014,1.378 0.001,1.378 0.015,0 2.147,0.168 4.738,0.374 2.591,0.206 4.798,0.374 4.904,0.374 h 1.639 l 0.003,1.412 c 0.006,2.535 0.069,3.271 0.329,3.859 0.208,0.539 0.568,0.639 0.987,0.648 0.411,-0.021 0.645,-0.166 0.872,-0.646 0.136,-0.279 0.170,-0.306 0.395,-0.306 h 0.246 l 0.084,0.833 c 0.046,0.458 0.102,0.948 0.123,1.088 l 0.039,0.255 h -2.073 -2.073 c -0.306,0.004 -0.339,-0.003 -0.369,0.046 -0.133,0.249 0.002,3.492 0.145,3.492 h 0.417 2.036 c 1.371,0 1.963,8.440e-4 2.036,0.071 0.028,0.027 0.075,0.146 0.167,0.238 0.096,0.096 0.219,0.153 0.340,0.163 0.122,-0.009 0.247,-0.067 0.344,-0.163 0.092,-0.092 0.139,-0.211 0.167,-0.238 0.073,-0.071 0.665,-0.071 2.036,-0.071 h 2.036 0.417 c 0.143,0 0.278,-3.243 0.145,-3.492 -0.031,-0.048 -0.063,-0.041 -0.369,-0.046 H 18.701 16.628 l 0.039,-0.255 C 16.688,25.734 16.743,25.244 16.790,24.786 l 0.084,-0.833 h 0.246 c 0.225,0 0.259,0.027 0.395,0.306 0.227,0.480 0.461,0.625 0.872,0.647 0.419,-0.009 0.779,-0.110 0.987,-0.649 0.260,-0.587 0.323,-1.324 0.329,-3.859 l 0.003,-1.412 h 1.639 c 0.107,0 2.314,-0.168 4.904,-0.374 2.591,-0.206 4.723,-0.374 4.738,-0.374 0.015,0 0.015,-0.620 9.370e-4,-1.378 -0.025,-1.274 -0.039,-1.402 -0.185,-1.703 -0.255,-0.524 -0.402,-0.570 -2.390,-0.744 -2.563,-0.216 -1.560,-0.148 -4.830,-0.428 -1.104,-0.094 -2.104,-0.187 -2.222,-0.206 l -0.216,-0.035 -0.048,-0.593 c -0.026,-0.326 -0.088,-0.690 -0.136,-0.809 -0.178,-0.435 -0.593,-0.449 -0.811,-0.027 -0.058,0.113 -0.125,0.481 -0.149,0.819 l -0.044,0.615 h -1.419 -1.418 l -4.260e-4,-4.609 C 17.121,4.321 17.090,3.706 16.806,2.828 16.605,2.204 16.226,1.880 16.001,1.860 Z" fill="white" stroke-width="1.2"/>
    <path d="M12.293031,18.986197 l 0.0039,1.41211 c 0.0062,2.53506 0.06826,3.269951 0.328125,3.857421 0.207911,0.538692 0.566942,0.639573 0.986328,0.648438 0.419386,-0.0089 0.78037,-0.109746 0.988281,-0.648438 0.25987,-0.58747 0.321925,-1.322361 0.328125,-3.857421 l 0.0039,-1.41211 c -2.638672,0 0,0 -2.638672,0 z" fill="white" stroke-width="1.2"/>
    <path d="M17.06817,18.98577 l 0.0039,1.41211 c 0.0062,2.53506 0.06826,3.269951 0.328125,3.857421 0.207911,0.538692 0.566942,0.639573 0.986328,0.648438 0.419386,-0.0089 0.78037,-0.109746 0.988281,-0.648438 0.25987,-0.58747 0.321925,-1.322361 0.328125,-3.857421 l 0.0039,-1.41211 c -2.638672,0 0,0 -2.638672,0 z" fill="white" stroke-width="1.2"/>
</svg>