<svg xmlns="http://www.w3.org/2000/svg" width="31" height="31" viewBox="-3 -3 32 32">
    <path stroke-width="1.2" fill="white" d="M13.96 12.12l5.06 5.08.16.57-.52.47-.35-.76-4.25-4.22-.1 1.26-.1.12-.98.22-.3 7.76 1.96.07.18.21-.04.39-.1.5-1.97.25-.21.01v.2h-.06l-.03.02-.02.04-.03.07h-.05l-.03-.03-.03-.06v-.27l-.78-.09v.74h-.06l-.04-.13v-.62l-.1-.02v.57l-.04.04-.07-.1v-.5l-.98-.12-.15-.4-.02-.48.16-.22.98-.04.02-1.3.1-.09v1.4h.1l-.02-1.5.1-.07v1.56l.26-.02.19-.02.14-.11-.33-7.7-1.02-.24-.13-1.79-4.65 4.6-.62.2-.45-.5.73-.33 4.55-4.54.26-.13-1.53-.23.01-2.26h.57v1l.5-.02-.01-.45h-.1l.01-.2.1-.08v-.24l.06-.07h.1l.06.07v.2l.08-.08.1-.01v-.1l.06-.08h.1l.05.06.02.27.1.08v.2h-.1v.41h.62V9.7L5.55 4.15l-.17-.6.5-.46.34.67.11.14 4.46 4.47.31.66v-.59l-.04-.06v-.74l-.05-.09-.01-.8.1-.26.03-.35.1-.3.1-.2.17-.13.09-.46.2-.4-.06-.04v-.42l.13-.1.78-.02.11.1.06.07.01.18-.03.3.14.22.11.57.18.17.17.26.06.34.01.26.07.25.01.75-.06.12.01.76-.04.04v.85L18.79 4l.62-.18.46.52-.75.36-4.53 4.5-1.12.62-.01.72h.63v-.43h-.1v-.2l.1-.1v-.22l.06-.07h.08l.05.06v.12h.07l.08.04.07.06v-.21l.05-.06h.07l.06.06.01.22.1.06v.25h-.1v.45l.5.01v-1h.56v2.3l-1.24.16h-.53z"/>
</svg>