<svg xmlns="http://www.w3.org/2000/svg" width="32" height="32" viewBox="0 0 64 64">
    <path stroke-width="2.2" fill="white" d="m 31.62,56.29 c -0.23,-0.11 -0.55,-0.86 -0.54,-1.56 l -7.58,2.71 c -0.17,-0.82 -0.12,-1.31 -0.01,-2.03 l 6.90,-6.31 c -0.23,-2.30 -0.51,-3.72 -1.19,-6.08 l -0.28,0.96 -1.13,0.01 -0.42,-1.31 -0.41,1.30 -1.23,-0.00 -0.50,-1.32 -0.21,-6.56 -18.70,1.18 c -0.24,-0.19 -0.38,-2.09 0.48,-3.21 L 26.26,28.95 C 28.75,24.52 29.87,18.91 30.59,9.77 L 29.53,10.42 30.71,8.40 c 0.30,-2.49 0.56,-4.45 1.29,-5.84 0.72,1.39 0.99,3.35 1.29,5.84 l 1.17,2.01 -1.05,-0.65 c 0.72,9.14 1.84,14.76 4.33,19.18 l 19.46,5.12 c 0.86,1.12 0.72,3.02 0.48,3.21 l -18.70,-1.18 -0.21,6.56 -0.50,1.32 -1.23,0.00 -0.41,-1.30 -0.42,1.31 -1.13,-0.01 -0.28,-0.96 c -0.68,2.36 -0.96,3.78 -1.19,6.08 l 6.90,6.31 c 0.10,0.72 0.15,1.22 -0.01,2.03 l -7.58,-2.71 c 0.01,0.70 -0.31,1.45 -0.54,1.56 l -0.37,0.63 z"/>
</svg>