<svg xmlns="http://www.w3.org/2000/svg" width="40" height="40" viewBox="-7.5 -7 40 40">
    <path fill="white" d="M12.48 25.75l-.16-.67c-.1-.46-.11-.46-2.2-.1l-1.72.28c-.18 0-.12-1.2.07-1.43.1-.12.95-.86 1.9-1.65a18.3 18.3 0 001.72-1.54l-.15-1.43a79.1 79.1 0 01-.25-4.68l-.09-3.34-4.22 2.25c-1.45.8-2.92 1.55-4.42 2.25-.11 0-1.47.67-3.01 1.49-2.16 1.14-2.84 1.44-2.93 1.3-.18-.29-.15-1.59.05-1.83.1-.12.6-.52 1.13-.9l.95-.68v-.8c0-.9.14-1.38.31-1.42.14-.03.27.03.33.69.04.4 0 1.01.04 1.01.03 0 .69-.51 1.31-.99.95-.73 1.09-.88.9-1.02-.26-.19-.44-1.4-.3-2.1.09-.48.11-.5.7-.5.7 0 .78.13.79 1.28 0 .37.03.67.08.67.12 0 3.16-2.27 3.16-2.35 0-.05-.1-.15-.22-.24-.25-.18-.42-1.4-.3-2.1.1-.48.12-.5.73-.5.6 0 .62.02.71.5.05.26.06.76.02 1.1-.04.45-.02.6.1.53L9.6 7.35l1.93-1.39V4.71c0-2.41.5-4.64 1.06-4.64.55 0 1.05 2.23 1.05 4.64v1.25l1.94 1.39c1.06.76 2 1.43 2.1 1.48.1.07.13-.08.08-.52-.04-.35-.03-.85.02-1.12.09-.47.12-.48.72-.48s.63.01.71.49c.14.7-.03 1.92-.29 2.1-.12.09-.21.2-.21.24 0 .08 3.04 2.35 3.16 2.35.04 0 .08-.3.08-.67 0-1.15.08-1.28.78-1.28.6 0 .62.02.7.5.14.7-.03 1.91-.3 2.1-.18.14-.05.3.9 1.02.63.48 1.3 1.03 1.33 1.03.03 0 0-.64.04-1.03.06-.63.15-.76.28-.76.18.01.35.55.35 1.46v.81l.95.68c.52.38 1.02.78 1.12.9.2.24.24 1.54.06 1.83-.1.14-.78-.16-2.93-1.3a34.2 34.2 0 00-3.01-1.5c-.11 0-2.1-1-4.43-2.24l-4.22-2.25-.1 3.34a79.1 79.1 0 01-.39 6.11c0 .06.78.75 1.72 1.54.95.79 1.8 1.53 1.9 1.65.2.23.25 1.43.07 1.43l-1.72-.28c-2.09-.36-2.09-.36-2.19.1-.04.21-.13.52-.2.67-.1.28-.1.28-.18 0z"/>
</svg>