<svg xmlns="http://www.w3.org/2000/svg" width="28" height="28" viewBox="0 0 32 32">
    <path stroke-width="1.2" fill="white" d="M19.7 27.47s.12.61-.38.56l-2.38.18.34.6-.2.65-.38-.66-.05 1.8-.13.22.04-2.28h-.3s.02 1.3-.25 1.6c0 0-.24-.03-.35-1.22 0 0-.32.12-.32-.69l-2.79-.2s-.4.07-.34-.48l.01-.46s.03-.42.36-.4l3.05-.31-.31-8.77s-.08-.4-.51-.52l-.01-.32-.77-.03v-.85l-.18-.1.2-.88s-.16-.2-.14-1.7l-7.6 5.18-.82.27-.43-.63.83-.26 7.4-5.1h.63l.03-2.26-.1-.11s-.27.42-.5-.02l.02-.9s.22-.43.45 0v.44l.21-.24.02-.44-4.83-7.09-.25-.8.62-.42.27.82 4.19 6.1s-.27-3.85 1.77-3.9c0 0 2.19-.52 2.03 3.65v2.07l.2.19-.01-.44s.18-.34.4 0l.02.48 7.08-4.83.82-.26.42.62-.81.26-7.47 5.13h-.48l-.05 3.8 4.62 6.8.25.83-.62.42-.27-.83-4.06-5.93.01.93-.74.01v.3s-.58.17-.58.86l-.31 8.5h.27v-.38l.15-.3v.71l2.45.24s.52-.05.53.33z"/>
</svg>