<svg xmlns="http://www.w3.org/2000/svg" width="32" height="32" viewBox="0 0 32 32">
    <path stroke-width="0.8" fill="white" d="M16.21 5.17l.19.19.26.56.34.83.19.48.22.83.11.82v1.16l.19.3.11.3.08.45v.45l1.16.67-.08-.52h-.11l-.04-.04-.07-.38v-.78l.04-.38h-.15v-.1l.07-.2.11-.1.04-.08h.9l.02.07.13.11.07.2v.1h-.15l.04.38v.78l-.07.38-.04.04h-.11l-.12.74 2.36 1.39-.07-.67h-.12l-.03-.04-.08-.38v-.78l.04-.38h-.15v-.1l.08-.2.1-.1.04-.08h.9l.04.07.11.11.08.2v.1h-.15l.04.38v.78l-.08.38-.04.04h-.1l-.16.93 4.57 2.62.11.08.07.15v.22l.34.79v.33l-.52-.4-3.86-.83-.07.19-.11.03V17l-1.35-.3-.11.23-.12.03v-.33l-.9-.19-.03.22-.11.2-.12.03v-.52l-1.42-.3-.04.22-.1.19-.12.03V16l-.56-.15-.08.49-.11.4-.19.38v2.92l-.07 1.46-.3 1.43-.34 1.16-.22.56L20.22 27l.15.15.03.15v.74l-4.26-1-.11.82-.12-.83-4.26 1.01v-.74l.03-.15.15-.15 3.63-2.36-.22-.56-.34-1.16-.3-1.43-.07-1.46v-2.92l-.19-.37-.11-.41-.08-.49-.56.15v.52l-.11-.03-.11-.19-.04-.22-1.42.3v.52l-.11-.04-.12-.19-.03-.22-.9.19v.33l-.11-.03-.12-.23-1.34.3v.26l-.12-.03-.07-.2-3.86.83-.52.41v-.33l.34-.79v-.22l.07-.15.11-.08 4.57-2.62-.15-.93h-.11l-.04-.04-.07-.38v-.78l.03-.38h-.15v-.1l.08-.2.11-.1.04-.08h.9l.03.07.12.11.07.2v.1h-.15l.04.38v.78l-.08.38-.03.04h-.12l-.07.67 2.36-1.39-.12-.74h-.1l-.05-.04-.07-.38v-.78l.04-.38h-.15v-.1l.07-.2.11-.1.04-.08h.9l.04.07.11.11.08.2v.1h-.15l.03.38v.78l-.07.38-.04.04h-.11l-.08.52 1.16-.67v-.45l.08-.45.11-.3.19-.3V8.88l.11-.82.22-.83.2-.48.33-.83.26-.56.19-.19.19-.07z"/>
</svg>