<svg xmlns="http://www.w3.org/2000/svg" width="32" height="32" viewBox="0 0 32 32">
    <path stroke-width="0.7" fill="white" d="M14.61 4.6v5.82l-2.92 1.56v-.4h.14c.16-.47.09-.96.09-.96 0-.23-.23-.23-.23-.23h-.62c-.21 0-.2.24-.2.24v.93h.15v.76l-2.03 1.07v-.41h.14c.18-.42.09-.98.09-.98 0-.26-.24-.23-.24-.23h-.6c-.2-.02-.2.17-.2.17v1h.16v.78L3.6 16.17c-1.07.54-.97 2.25-.97 2.25l3.62-1.1c.14 1.75.17-.01.17-.06l.94-.26c.16 1.67.17-.07.17-.07l.92-.3c.12 1.97.18-.05.18-.05l1.14-.36c.07 1.95.14.1.14-.04l1.23-.27c.09 2.04.14.01.13-.02l1.43-.28c.14 2.23.18.02.17-.03l1.45-.26a6.8 6.8 0 00.29 2.38v1.94c-.06 1.93.05 3.43.05 3.43.19 2.82.7 4.74.7 4.74l-3.1 1.73c-.53.32-.4 1.13-.4 1.13l3.75-.63c-.07 1.24.4 1.19.4 1.19s.47.05.4-1.2l3.75.64s.13-.8-.4-1.13l-3.09-1.73s.5-1.92.7-4.74c0 0 .1-1.5.05-3.43V17.7s.3-.7.28-2.38l1.45.26c0 .2.04 2.16.18.03l1.42.28c0 .06.01 1.95.13.02l1.23.27c0 .26 0 1.84.15.04l1.14.36c0 .11.02 2.02.18.04l.92.3c0 .07.01 1.98.16.08l.95.26c0 .1.06 1.84.17.06l3.61 1.1s.1-1.7-.96-2.25l-4.74-2.45v-.78h.16v-1s0-.2-.2-.17h-.6s-.25-.03-.24.23c0 0-.1.56.08.98h.14v.41l-2.02-1.07v-.76h.14v-.93s.02-.24-.19-.24h-.62s-.24 0-.23.23c0 0-.07.49.09.96h.14v.4l-2.92-1.56V4.6s-.38-2.66-1.4-3c-1.04.34-1.41 3-1.41 3z"/>
</svg>