<svg xmlns="http://www.w3.org/2000/svg" width="28" height="28" viewBox="0 0 32 32">
    <path stroke-width="1.0" fill="white" d="M15.9 28.57l-.17.02-.16-.35-3.9-.49v-1.27l3.79.06-.48-7.98-.58-2.42s-.06-.14-.42-.15c-.36 0-1 .05-1.05-.64v-.56L7.46 20.2s-.88-.2-.5-.6l5.96-5.78-.02-.65s0-.24.25-.2l.65-.01.28-.28v-2.41L6.85 2.89s.22-.87.6-.5l6.62 6.9.02-1.95s.25-1.72.85-2.65c0 0 .95-1.4 2.05 0 0 0 .65 1 .63 2.64V8.9l6.56-6.5s.93.18.48.6l-7.08 6.88-.04 2.65.1.1.9.02s.23 0 .24.28l-.01.85 5.87 6.04s-.26.81-.58.48l-5.32-5.57v.6s-.06.65-.7.64h-.63l-.26.18-.56 2.44-.4 8.12s.16.25.14.55l.16-.01.14-.4v-2.03h.33v2.21h.3v.64h-.3v2.32h-.33v-2.23l-.15-.36h-.17s-.01.37-.4 1.17z"/>
</svg>