<?xml version="1.0" encoding="UTF-8"?>
<!DOCTYPE svg PUBLIC "-//W3C//DTD SVG 1.1//EN" "http://www.w3.org/Graphics/SVG/1.1/DTD/svg11.dtd">
<!-- Creator: CorelDRAW X5 -->
<svg xmlns="http://www.w3.org/2000/svg" xml:space="preserve" width="16" height="16" style="shape-rendering:geometricPrecision; text-rendering:geometricPrecision; image-rendering:optimizeQuality; fill-rule:evenodd; clip-rule:evenodd"
viewBox="0 0 1000 1000"
 xmlns:xlink="http://www.w3.org/1999/xlink">
 <defs>
  <style type="text/css">
   <![CDATA[
    .fil1 {fill:#FEFEFE}
    .fil0 {fill:#047FBC}
   ]]>
  </style>
 </defs>
 <g id="Ebene_x0020_1">
  <metadata id="CorelCorpID_0Corel-Layer"/>
  <path class="fil0" d="M284 102l437 0c100,0 182,82 182,182l0 437c0,100 -82,182 -182,182l-437 0c-100,0 -182,-82 -182,-182l0 -437c0,-100 82,-182 182,-182z"/>
  <path class="fil1" d="M502 741l-114 30 0 -37 83 -51c-4,-42 -8,-113 -9,-178l-190 52 0 -51 190 -118 2 -50c2,-59 11,-103 38,-103 27,0 36,44 38,103l2 50 190 118 0 51 -190 -52c0,65 -5,136 -9,178l83 51 0 37 -114 -30z"/>
 </g>
</svg>
